<svg id="Camada_1" data-name="Camada 1" xmlns="http://www.w3.org/2000/svg" width="5cm" height="4.87631cm" viewBox="0 0 141.73228 138.22606">
  <g>
    <rect width="141.73228" height="138.22606" rx="24.30482" fill="#001e36"/>
    <path d="M64.248,43.69159H41.29366a.97422.97422,0,0,0-.97422.97422v60.06945a.97421.97421,0,0,0,.97422.97421H51.97023a.97421.97421,0,0,0,.97421-.97421v-18.758H64.248a20.5,20.5,0,0,0,20.5-20.5v-1.2857A20.5,20.5,0,0,0,64.248,43.69159ZM61.85521,74.87018H53.03374V54.79877h8.82147a10.03571,10.03571,0,0,1,0,20.07141Z" transform="translate(-8.26772 -8.05915)" fill="#31a8ff"/>
    <path d="M123.01588,70.50426V60.71851a.9653.9653,0,0,0-.63238-.91349,33.07023,33.07023,0,0,0-12.35869-1.96164c-4.1766.14615-8.64394.30246-12.70535,3.45536a15.39322,15.39322,0,0,0-2.98381,3.078,13.61718,13.61718,0,0,0,.98381,17.70769,23.8204,23.8204,0,0,0,8.14285,5.07144c3.92322,1.57286,6.852,1.71223,8.28572,4.2857a3.86177,3.86177,0,0,1,.01983,2.64286c-.95339,2.76368-7.93127,2.06535-8.9484,2a25.27229,25.27229,0,0,1-10.34882-3.03891.97347.97347,0,0,0-1.4369.85233v9.45988a.96471.96471,0,0,0,.602.90151,38.0205,38.0205,0,0,0,12.398,2.68233c4.68315.20833,9.3586.41631,13.92856-2.5.986-.62924,7.04773-4.49749,7.5-11.2857a13.94652,13.94652,0,0,0-4.57143-11.07144c-4.43762-3.88857-10.72869-3.58576-15.7857-7.85713-.77487-.6545-1.83919-1.68534-1.7143-2.85715.16451-1.54343,2.29784-2.4471,2.92858-2.71428.79751-.33783,3.08746-1.16412,8.35715.14285a33.247,33.247,0,0,1,6.926,2.5706A.97353.97353,0,0,0,123.01588,70.50426Z" transform="translate(-8.26772 -8.05915)" fill="#31a8ff"/>
  </g>
</svg>
